<?xml version="1.0" encoding="UTF-8"?>
<svg width="198px" height="159px" viewBox="0 0 198 159" version="1.1" xmlns="http://www.w3.org/2000/svg" xmlns:xlink="http://www.w3.org/1999/xlink">
    <!-- Generator: Sketch 58 (84663) - https://sketch.com -->
    <title>Group 3</title>
    <desc>Created with Sketch.</desc>
    <defs>
        <polygon id="path-1" points="0 0.000202118644 198 0.000202118644 198 159 0 159"></polygon>
    </defs>
    <g id="Dashboard-Launch-Version-v2" stroke="none" stroke-width="1" fill="none" fill-rule="evenodd">
        <g id="There-are-updates" transform="translate(-584.000000, -225.000000)">
            <g id="Group-3" transform="translate(584.000000, 225.000000)">
                <mask id="mask-2" fill="white">
                    <use xlink:href="#path-1"></use>
                </mask>
                <g id="Clip-2"></g>
                <path d="M194.509615,27.8939225 C193.119808,18.861914 186.839654,11.5533038 178.479231,9.32124025 C163.654615,5.36173602 136.630154,0.000202118644 99,0.000202118644 C61.2778269,0.000202118644 34.2133846,5.38801144 19.4116154,9.35021059 C11.0810192,11.580253 4.78563462,18.8363123 3.39519231,27.8373292 C1.73757692,38.5617445 0,55.5255623 0,79.5002021 C0,103.543562 1.74773077,120.53635 3.40915385,131.25605 C4.79832692,140.220685 11.0454808,147.470681 19.3373654,149.71824 C33.9309808,153.673028 60.69525,159.000202 99,159.000202 C137.166404,159.000202 163.875462,153.712105 178.503346,149.761359 C186.805385,147.519189 193.060154,140.248982 194.437904,131.272893 C196.142481,120.165126 198,102.67041 198,79.1633377 C198,55.9843716 196.194519,38.8433631 194.509615,27.8939225" id="Fill-1" fill="#000000" mask="url(#mask-2)"></path>
            </g>
        </g>
    </g>
</svg>