#define arrow_right_16_width 8
#define arrow_right_16_height 8
static unsigned char arrow_right_16_bits[] = {
   0x01, 0x07, 0x1f, 0x7f, 0xff, 0x3f, 0x0f, 0x03 };
