#define arrow_down_16_width 8
#define arrow_down_16_height 8
static unsigned char arrow_down_16_bits[] = {
   0xff, 0xfe, 0x7e, 0x7c, 0x3c, 0x38, 0x18, 0x10 };
